<?xml version="1.0" standalone="no"?>
<!DOCTYPE svg PUBLIC "-//W3C//DTD SVG 20010904//EN"
 "http://www.w3.org/TR/2001/REC-SVG-20010904/DTD/svg10.dtd">
<svg version="1.0" xmlns="http://www.w3.org/2000/svg"
 width="64.000000pt" height="64.000000pt" viewBox="0 0 64.000000 64.000000"
 preserveAspectRatio="xMidYMid meet">

<g transform="translate(0.000000,64.000000) scale(0.100000,-0.100000)"
fill="#000000" stroke="none">
<path d="M267 633 c-4 -3 -7 -15 -7 -26 0 -10 -9 -21 -20 -24 -11 -3 -20 -9
-20 -13 0 -4 -14 -6 -32 -6 -28 1 -35 -5 -56 -42 -18 -32 -21 -47 -13 -55 20
-20 12 -26 -41 -29 l-53 -3 0 -155 0 -155 45 -1 45 -2 -40 7 -40 6 0 145 0
145 39 3 c21 2 43 -1 49 -7 8 -8 2 -11 -19 -11 -53 0 -55 -6 -52 -136 l3 -119
264 -3 c205 -2 266 1 273 10 13 21 10 222 -4 236 -7 7 -25 12 -40 12 -15 0
-28 5 -28 10 0 15 76 12 89 -4 8 -9 11 -57 9 -147 l-3 -134 -235 -5 c-129 -3
-209 -7 -176 -8 55 -2 58 -3 52 -24 -3 -13 -6 -26 -6 -30 0 -5 -14 -8 -30 -8
-34 0 -52 -26 -29 -41 8 -5 69 -9 135 -9 94 0 124 3 134 15 16 20 4 35 -30 35
-27 0 -40 15 -40 46 0 10 25 14 118 16 l117 3 0 155 0 155 -57 3 c-61 3 -68 7
-42 27 15 11 14 16 -11 59 -21 36 -32 46 -47 43 -25 -7 -78 23 -78 44 0 9 -7
20 -16 23 -21 8 -99 8 -107 -1z m97 -117 c45 -19 66 -52 66 -103 0 -109 -136
-145 -198 -53 -29 44 -24 91 14 131 23 24 36 31 77 38 4 0 23 -5 41 -13z m106
-31 c33 -68 22 -126 -34 -181 -55 -56 -113 -67 -181 -34 -25 12 -45 27 -45 34
0 9 16 5 49 -11 38 -19 57 -23 86 -17 49 9 102 56 115 102 11 42 -1 102 -25
122 -19 16 -19 30 -1 30 8 0 24 -20 36 -45z m-340 -105 c0 -5 -4 -10 -10 -10
-16 0 -11 -29 13 -71 15 -28 28 -39 42 -37 29 3 82 -28 88 -52 4 -17 13 -20
62 -20 48 0 58 3 62 20 6 24 49 53 82 54 21 1 31 11 51 50 18 35 22 50 13 53
-24 9 -13 23 17 23 l30 0 0 -110 0 -110 -255 0 -255 0 0 110 0 110 30 0 c17 0
30 -4 30 -10z m244 -286 c12 -30 6 -34 -49 -34 -47 0 -55 3 -55 18 0 27 9 32
56 32 29 0 44 -5 48 -16z m76 -54 c0 -6 -48 -10 -125 -10 -77 0 -125 4 -125
10 0 6 48 10 125 10 77 0 125 -4 125 -10z"/>
<path d="M337 450 c-14 -12 -32 -17 -45 -13 -35 9 -40 -24 -9 -55 22 -21 28
-23 41 -12 9 7 16 17 16 22 0 6 -7 5 -16 -2 -13 -11 -19 -10 -37 10 l-22 22
29 -6 c22 -5 34 -2 52 15 13 12 24 17 24 11 0 -6 -4 -14 -10 -17 -5 -3 -10
-10 -10 -15 0 -6 9 -2 20 7 40 35 9 66 -33 33z"/>
<path d="M572 520 c-10 -17 -10 -24 1 -40 13 -18 14 -18 29 -1 14 16 14 20 -1
40 l-16 21 -13 -20z"/>
<path d="M42 514 c-11 -12 -10 -17 2 -30 15 -14 17 -14 32 0 14 14 14 18 0 31
-18 18 -18 18 -34 -1z"/>
</g>
</svg>
